<mxfile host="app.diagrams.net" modified="2020-12-22T07:50:11.453Z" agent="5.0 (Windows NT 10.0; Win64; x64) AppleWebKit/537.36 (KHTML, like Gecko) Chrome/87.0.4280.88 Safari/537.36" etag="pl6m4ZOFl9GfOdAdqm4G" version="14.1.1" type="github">
  <diagram id="RuMLqHy3RxYvsem4Vksn" name="Page-1">
    <mxGraphModel dx="572" dy="1393" grid="1" gridSize="10" guides="1" tooltips="1" connect="1" arrows="1" fold="1" page="1" pageScale="1" pageWidth="850" pageHeight="1100" math="0" shadow="0">
      <root>
        <mxCell id="0" />
        <mxCell id="1" parent="0" />
        <mxCell id="PHvKi-Emu8E6jwM2ZB0a-19" value="Cmn" style="rounded=0;whiteSpace=wrap;html=1;imageWidth=29;imageHeight=30;" vertex="1" parent="1">
          <mxGeometry x="220" y="60" width="80" height="30" as="geometry" />
        </mxCell>
        <mxCell id="PHvKi-Emu8E6jwM2ZB0a-20" value="CmnGroupA" style="rounded=0;whiteSpace=wrap;html=1;imageWidth=29;imageHeight=30;" vertex="1" parent="1">
          <mxGeometry x="220" y="90" width="80" height="30" as="geometry" />
        </mxCell>
        <mxCell id="PHvKi-Emu8E6jwM2ZB0a-26" value="Inin00" style="rounded=0;whiteSpace=wrap;html=1;imageWidth=29;imageHeight=30;" vertex="1" parent="1">
          <mxGeometry x="220" y="120" width="80" height="30" as="geometry" />
        </mxCell>
        <mxCell id="PHvKi-Emu8E6jwM2ZB0a-27" value="Inin01" style="rounded=0;whiteSpace=wrap;html=1;imageWidth=29;imageHeight=30;" vertex="1" parent="1">
          <mxGeometry x="220" y="150" width="80" height="30" as="geometry" />
        </mxCell>
        <mxCell id="PHvKi-Emu8E6jwM2ZB0a-31" value="Inin00GroupA" style="rounded=0;whiteSpace=wrap;html=1;imageWidth=29;imageHeight=30;" vertex="1" parent="1">
          <mxGeometry x="220" y="180" width="80" height="30" as="geometry" />
        </mxCell>
        <mxCell id="PHvKi-Emu8E6jwM2ZB0a-33" value="Inin01GroupA" style="rounded=0;whiteSpace=wrap;html=1;imageWidth=29;imageHeight=30;" vertex="1" parent="1">
          <mxGeometry x="220" y="210" width="80" height="30" as="geometry" />
        </mxCell>
        <mxCell id="PHvKi-Emu8E6jwM2ZB0a-38" value="0x001A0000" style="text;html=1;strokeColor=none;fillColor=none;align=center;verticalAlign=middle;whiteSpace=wrap;rounded=0;" vertex="1" parent="1">
          <mxGeometry x="330" y="60" width="40" height="20" as="geometry" />
        </mxCell>
        <mxCell id="PHvKi-Emu8E6jwM2ZB0a-39" value="CalRegn01" style="text;html=1;strokeColor=none;fillColor=none;align=center;verticalAlign=middle;whiteSpace=wrap;rounded=0;" vertex="1" parent="1">
          <mxGeometry x="230" y="30" width="60" height="20" as="geometry" />
        </mxCell>
        <mxCell id="PHvKi-Emu8E6jwM2ZB0a-42" value="&lt;div style=&quot;color: rgb(171, 178, 191); background-color: rgb(40, 44, 52); font-family: consolas, &amp;quot;courier new&amp;quot;, monospace; font-weight: normal; font-size: 14px; line-height: 19px;&quot;&gt;&lt;div&gt;&lt;span style=&quot;color: #e06c75&quot;&gt;RteParameterRefTab&lt;/span&gt;&lt;/div&gt;&lt;/div&gt;" style="text;whiteSpace=wrap;html=1;" vertex="1" parent="1">
          <mxGeometry x="20" y="30" width="150" height="30" as="geometry" />
        </mxCell>
        <mxCell id="PHvKi-Emu8E6jwM2ZB0a-45" value="" style="rounded=0;whiteSpace=wrap;html=1;" vertex="1" parent="1">
          <mxGeometry x="30" y="60" width="120" height="25" as="geometry" />
        </mxCell>
        <mxCell id="PHvKi-Emu8E6jwM2ZB0a-48" value="Inin00" style="rounded=0;whiteSpace=wrap;html=1;imageWidth=29;imageHeight=30;" vertex="1" parent="1">
          <mxGeometry x="220" y="290" width="80" height="30" as="geometry" />
        </mxCell>
        <mxCell id="PHvKi-Emu8E6jwM2ZB0a-49" value="Inin01" style="rounded=0;whiteSpace=wrap;html=1;imageWidth=29;imageHeight=30;" vertex="1" parent="1">
          <mxGeometry x="220" y="320" width="80" height="30" as="geometry" />
        </mxCell>
        <mxCell id="PHvKi-Emu8E6jwM2ZB0a-50" value="Rt01GroupA" style="rounded=0;whiteSpace=wrap;html=1;imageWidth=29;imageHeight=30;" vertex="1" parent="1">
          <mxGeometry x="220" y="500" width="80" height="30" as="geometry" />
        </mxCell>
        <mxCell id="PHvKi-Emu8E6jwM2ZB0a-53" value="Inin00GroupA" style="rounded=0;whiteSpace=wrap;html=1;imageWidth=29;imageHeight=30;" vertex="1" parent="1">
          <mxGeometry x="220" y="350" width="80" height="30" as="geometry" />
        </mxCell>
        <mxCell id="PHvKi-Emu8E6jwM2ZB0a-54" value="Inin01GroupA" style="rounded=0;whiteSpace=wrap;html=1;imageWidth=29;imageHeight=30;" vertex="1" parent="1">
          <mxGeometry x="220" y="380" width="80" height="30" as="geometry" />
        </mxCell>
        <mxCell id="PHvKi-Emu8E6jwM2ZB0a-55" value="Rt00" style="rounded=0;whiteSpace=wrap;html=1;imageWidth=29;imageHeight=30;" vertex="1" parent="1">
          <mxGeometry x="220" y="410" width="80" height="30" as="geometry" />
        </mxCell>
        <mxCell id="PHvKi-Emu8E6jwM2ZB0a-56" value="Rt01" style="rounded=0;whiteSpace=wrap;html=1;imageWidth=29;imageHeight=30;" vertex="1" parent="1">
          <mxGeometry x="220" y="440" width="80" height="30" as="geometry" />
        </mxCell>
        <mxCell id="PHvKi-Emu8E6jwM2ZB0a-57" value="Rt00GroupA" style="rounded=0;whiteSpace=wrap;html=1;imageWidth=29;imageHeight=30;arcSize=15;" vertex="1" parent="1">
          <mxGeometry x="220" y="470" width="80" height="30" as="geometry" />
        </mxCell>
      </root>
    </mxGraphModel>
  </diagram>
</mxfile>
